<?xml version="1.0" encoding="utf-8"?>
<!-- Generator: Adobe Illustrator 16.0.0, SVG Export Plug-In . SVG Version: 6.00 Build 0)  -->
<!DOCTYPE svg PUBLIC "-//W3C//DTD SVG 1.1//EN" "http://www.w3.org/Graphics/SVG/1.1/DTD/svg11.dtd">
<svg version="1.1" id="Capa_1" xmlns="http://www.w3.org/2000/svg" xmlns:xlink="http://www.w3.org/1999/xlink" x="0px" y="0px"
	 width="1600px" height="900px" viewBox="0 0 1600 900" enable-background="new 0 0 1600 900" xml:space="preserve">
<rect fill="#E30613" width="1600" height="900"/>
<g>
	<defs>
		<rect id="SVGID_1_" width="1600" height="900"/>
	</defs>
	<clipPath id="SVGID_2_">
		<use xlink:href="#SVGID_1_"  overflow="visible"/>
	</clipPath>
</g>
<g>
	<defs>
		<rect id="SVGID_3_" width="1600" height="900"/>
	</defs>
	<clipPath id="SVGID_4_">
		<use xlink:href="#SVGID_3_"  overflow="visible"/>
	</clipPath>
</g>
<text transform="matrix(1 0 0 1 636.6709 508.7539)" fill="#E30613" font-family="'BunkenTechSansPro-SeBdIt'" font-size="39">Correo electrónico</text>
<g>
	<defs>
		<rect id="SVGID_5_" width="1600" height="900"/>
	</defs>
	<clipPath id="SVGID_6_">
		<use xlink:href="#SVGID_5_"  overflow="visible"/>
	</clipPath>
</g>
<g>
	<defs>
		<rect id="SVGID_7_" width="1600" height="900"/>
	</defs>
	<clipPath id="SVGID_8_">
		<use xlink:href="#SVGID_7_"  overflow="visible"/>
	</clipPath>
</g>
<g>
	<defs>
		<rect id="SVGID_9_" width="1028.354" height="299.209"/>
	</defs>
	<clipPath id="SVGID_10_">
		<use xlink:href="#SVGID_9_"  overflow="visible"/>
	</clipPath>
	<polygon clip-path="url(#SVGID_10_)" fill="#FFFFFF" points="149.823,208.756 140.023,208.756 301.837,-434.609 311.598,-434.452 	
		"/>
</g>
<g>
	<defs>
		<rect id="SVGID_11_" width="1600" height="900"/>
	</defs>
	<clipPath id="SVGID_12_">
		<use xlink:href="#SVGID_11_"  overflow="visible"/>
	</clipPath>
	<g clip-path="url(#SVGID_12_)">
		<defs>
			<rect id="SVGID_13_" y="1035.574" width="1028.355" height="299.209"/>
		</defs>
		<clipPath id="SVGID_14_">
			<use xlink:href="#SVGID_13_"  overflow="visible"/>
		</clipPath>
		<polygon clip-path="url(#SVGID_14_)" fill="#E30613" points="149.823,1244.33 140.023,1244.33 301.837,600.966 311.598,601.122 		
			"/>
	</g>
</g>
<g>
	<defs>
		<rect id="SVGID_15_" x="978.796" width="621.204" height="900"/>
	</defs>
	<clipPath id="SVGID_16_">
		<use xlink:href="#SVGID_15_"  overflow="visible"/>
	</clipPath>
	<polygon clip-path="url(#SVGID_16_)" points="1505.612,0.034 1279.366,899.846 2102.469,899.846 2328.85,0.034 	"/>
</g>
<g>
	<defs>
		<rect id="SVGID_17_" width="1600" height="900"/>
	</defs>
	<clipPath id="SVGID_18_">
		<use xlink:href="#SVGID_17_"  overflow="visible"/>
	</clipPath>
	
		<rect x="1027.18" y="267.733" transform="matrix(0.1162 0.9932 -0.9932 0.1162 1746.2997 -276.2103)" clip-path="url(#SVGID_18_)" fill="#FFFFFF" width="2.349" height="1150.841"/>
	
		<rect x="1537.666" y="761.313" transform="matrix(0.9713 0.2378 -0.2378 0.9713 235.6422 -342.89)" clip-path="url(#SVGID_18_)" fill="#FFFFFF" width="2.349" height="87.599"/>
	
		<rect x="1512.875" y="761.313" transform="matrix(0.9713 0.2378 -0.2378 0.9713 234.9308 -336.9939)" clip-path="url(#SVGID_18_)" fill="#FFFFFF" width="2.349" height="87.599"/>
	
		<rect x="1488.085" y="761.313" transform="matrix(0.9713 0.2378 -0.2378 0.9713 234.2195 -331.0979)" clip-path="url(#SVGID_18_)" fill="#FFFFFF" width="2.349" height="87.599"/>
	
		<rect x="1463.294" y="761.313" transform="matrix(0.9713 0.2379 -0.2379 0.9713 233.6199 -325.3235)" clip-path="url(#SVGID_18_)" fill="#FFFFFF" width="2.348" height="87.599"/>
	
		<rect x="1438.504" y="761.313" transform="matrix(0.9713 0.2378 -0.2378 0.9713 232.7968 -319.3057)" clip-path="url(#SVGID_18_)" fill="#FFFFFF" width="2.349" height="87.599"/>
	
		<rect x="1413.714" y="761.313" transform="matrix(0.9713 0.2378 -0.2378 0.9713 232.0854 -313.4099)" clip-path="url(#SVGID_18_)" fill="#FFFFFF" width="2.349" height="87.599"/>
	
		<rect x="1388.924" y="761.313" transform="matrix(0.9713 0.2378 -0.2378 0.9713 231.374 -307.5138)" clip-path="url(#SVGID_18_)" fill="#FFFFFF" width="2.349" height="87.599"/>
	
		<rect x="1364.134" y="761.313" transform="matrix(0.9713 0.2378 -0.2378 0.9713 230.6627 -301.6178)" clip-path="url(#SVGID_18_)" fill="#FFFFFF" width="2.349" height="87.599"/>
	
		<rect x="1339.343" y="761.313" transform="matrix(0.9713 0.2378 -0.2378 0.9713 229.9513 -295.7217)" clip-path="url(#SVGID_18_)" fill="#FFFFFF" width="2.349" height="87.599"/>
	
		<rect x="1314.553" y="761.313" transform="matrix(0.9713 0.2378 -0.2378 0.9713 229.24 -289.8256)" clip-path="url(#SVGID_18_)" fill="#FFFFFF" width="2.349" height="87.599"/>
	
		<rect x="1289.763" y="761.313" transform="matrix(0.9713 0.2378 -0.2378 0.9713 228.5287 -283.9296)" clip-path="url(#SVGID_18_)" fill="#FFFFFF" width="2.349" height="87.599"/>
	
		<rect x="1264.972" y="761.313" transform="matrix(0.9713 0.2379 -0.2379 0.9713 227.9243 -278.1361)" clip-path="url(#SVGID_18_)" fill="#FFFFFF" width="2.348" height="87.599"/>
	
		<rect x="1240.182" y="761.313" transform="matrix(0.9713 0.2378 -0.2378 0.9713 227.1059 -272.1375)" clip-path="url(#SVGID_18_)" fill="#FFFFFF" width="2.349" height="87.599"/>
	
		<rect x="1215.392" y="761.313" transform="matrix(0.9713 0.2378 -0.2378 0.9713 226.3946 -266.2415)" clip-path="url(#SVGID_18_)" fill="#FFFFFF" width="2.349" height="87.599"/>
	
		<rect x="1190.601" y="761.313" transform="matrix(0.9713 0.2379 -0.2379 0.9713 225.7886 -260.4408)" clip-path="url(#SVGID_18_)" fill="#FFFFFF" width="2.348" height="87.599"/>
	
		<rect x="1165.812" y="761.313" transform="matrix(0.9713 0.2378 -0.2378 0.9713 224.9719 -254.4495)" clip-path="url(#SVGID_18_)" fill="#FFFFFF" width="2.349" height="87.599"/>
</g>
</svg>
