<?xml version="1.0" encoding="utf-8"?>
<!-- Generator: Adobe Illustrator 16.0.0, SVG Export Plug-In . SVG Version: 6.00 Build 0)  -->
<!DOCTYPE svg PUBLIC "-//W3C//DTD SVG 1.1//EN" "http://www.w3.org/Graphics/SVG/1.1/DTD/svg11.dtd">
<svg version="1.1" id="Capa_1" xmlns="http://www.w3.org/2000/svg" xmlns:xlink="http://www.w3.org/1999/xlink" x="0px" y="0px"
	 width="1600px" height="900px" viewBox="0 0 1600 900" enable-background="new 0 0 1600 900" xml:space="preserve">
<rect fill="#1D1D1B" width="1600" height="900"/>
<polygon fill="#E30613" points="533.251,900 553.435,900 1600.001,777.335 1599.727,775.003 "/>
<rect x="1537.666" y="761.313" transform="matrix(0.9713 0.2378 -0.2378 0.9713 235.6422 -342.89)" fill="#E30613" width="2.349" height="87.599"/>
<rect x="1512.875" y="761.313" transform="matrix(0.9713 0.2378 -0.2378 0.9713 234.9308 -336.9939)" fill="#E30613" width="2.349" height="87.599"/>
<rect x="1488.085" y="761.313" transform="matrix(0.9713 0.2378 -0.2378 0.9713 234.2195 -331.0979)" fill="#E30613" width="2.349" height="87.599"/>
<rect x="1463.294" y="761.313" transform="matrix(0.9713 0.2379 -0.2379 0.9713 233.6199 -325.3235)" fill="#E30613" width="2.348" height="87.599"/>
<rect x="1438.504" y="761.313" transform="matrix(0.9713 0.2378 -0.2378 0.9713 232.7968 -319.3057)" fill="#E30613" width="2.349" height="87.599"/>
<rect x="1413.714" y="761.313" transform="matrix(0.9713 0.2378 -0.2378 0.9713 232.0854 -313.4099)" fill="#E30613" width="2.349" height="87.599"/>
<rect x="1388.924" y="761.313" transform="matrix(0.9713 0.2378 -0.2378 0.9713 231.374 -307.5138)" fill="#E30613" width="2.349" height="87.599"/>
<rect x="1364.134" y="761.313" transform="matrix(0.9713 0.2378 -0.2378 0.9713 230.6627 -301.6178)" fill="#E30613" width="2.349" height="87.599"/>
<rect x="1339.343" y="761.313" transform="matrix(0.9713 0.2378 -0.2378 0.9713 229.9513 -295.7217)" fill="#E30613" width="2.349" height="87.599"/>
<rect x="1314.553" y="761.313" transform="matrix(0.9713 0.2378 -0.2378 0.9713 229.24 -289.8256)" fill="#E30613" width="2.349" height="87.599"/>
<rect x="1289.763" y="761.313" transform="matrix(0.9713 0.2378 -0.2378 0.9713 228.5287 -283.9296)" fill="#E30613" width="2.349" height="87.599"/>
<rect x="1264.972" y="761.313" transform="matrix(0.9713 0.2379 -0.2379 0.9713 227.9243 -278.1361)" fill="#E30613" width="2.348" height="87.599"/>
<rect x="1240.182" y="761.313" transform="matrix(0.9713 0.2378 -0.2378 0.9713 227.1059 -272.1375)" fill="#E30613" width="2.349" height="87.599"/>
<rect x="1215.392" y="761.313" transform="matrix(0.9713 0.2378 -0.2378 0.9713 226.3946 -266.2415)" fill="#E30613" width="2.349" height="87.599"/>
<rect x="1190.601" y="761.313" transform="matrix(0.9713 0.2379 -0.2379 0.9713 225.7886 -260.4408)" fill="#E30613" width="2.348" height="87.599"/>
<rect x="1165.812" y="761.313" transform="matrix(0.9713 0.2378 -0.2378 0.9713 224.9719 -254.4495)" fill="#E30613" width="2.349" height="87.599"/>
<text transform="matrix(1 0 0 1 542.3188 509.1143)" fill="#1D1D1B" font-family="'BunkenTechSansPro-SeBdIt'" font-size="42">B</text>
<polygon fill="#E30613" points="192.528,0 140.022,208.756 149.823,208.756 202.328,0 "/>
<g>
	<defs>
		<rect id="SVGID_1_" width="1600" height="900"/>
	</defs>
	<clipPath id="SVGID_2_">
		<use xlink:href="#SVGID_1_"  overflow="visible"/>
	</clipPath>
</g>
</svg>
