<?xml version="1.0" encoding="utf-8"?>
<!-- Generator: Adobe Illustrator 16.0.0, SVG Export Plug-In . SVG Version: 6.00 Build 0)  -->
<!DOCTYPE svg PUBLIC "-//W3C//DTD SVG 1.1//EN" "http://www.w3.org/Graphics/SVG/1.1/DTD/svg11.dtd">
<svg version="1.1" id="Capa_1" xmlns="http://www.w3.org/2000/svg" xmlns:xlink="http://www.w3.org/1999/xlink" x="0px" y="0px"
	 width="501.258px" height="171.989px" viewBox="0 0 501.258 171.989" enable-background="new 0 0 501.258 171.989"
	 xml:space="preserve">
<path fill="#FFFFFF" d="M243.698,5.772l-28.558,113.572H6.165L34.728,5.772H243.698z M246.602,3.508h-2.903H34.728h-1.764
	L32.532,5.22L3.969,118.792l-0.708,2.816h2.903h208.976h1.765l0.43-1.712L245.894,6.324L246.602,3.508z"/>
<polygon fill="#E30613" points="139.096,5.771 136.928,5.771 108.354,119.344 215.141,119.344 243.697,5.771 "/>
<polygon fill="#1D1D1B" points="34.729,5.771 6.164,119.344 110.061,119.344 138.629,5.771 "/>
<path fill="#FFFFFF" d="M220.894,67.375c-0.878,4.642-1.854,7.307-3.383,10.37c-2.861,5.729-8.645,8.848-16.787,9.941
	c-3.18,0.404-7.442,0.283-7.442,0.283l17.015,24.166h-25.236L161.428,78.5c0,0,20.582-0.055,22.718-0.055
	c4.924,0,11.433-1.443,13.25-4.832c0.547-1.025,1.332-2.763,1.363-4.599c0.007-2.284-2.204-4.206-5.974-4.206
	c-3.776,0-37.012-0.024-37.012-0.024l-11.709,46.701H120.19l14.988-58.195c0,0,56.605-0.013,68.382-0.013
	C216.362,53.277,222.36,59.724,220.894,67.375"/>
<path fill="#FFFFFF" d="M111.724,77.346l-39.333,0.043l-3.696,11.04h19.544l-3.181,10.665H53.554c-6.877,0-9.757-1.676-9.057-6.502
	c0.767-5.477,2.818-10.113,4.679-15.191c3.788-10.266,9.259-12.875,32.038-12.875c12.09,0,34.108,0.018,34.108,0.018l3.61-11.562
	c0,0-32.511-0.012-40.972-0.012c-33.389,0-44.809,3.906-51.195,20.238c-2.155,5.544-5.403,15.767-6.84,24.192
	c-1.707,9.923,5.968,13.802,14.147,14.085c11.297,0.374,68.012,0.196,68.012,0.196L111.724,77.346z"/>
<path fill="#FFFFFF" d="M337.578,53.418h-16.074c-4.875,0-10.917,0.976-14.804,6.742c-2.45,3.592-9.333,17.069-9.333,17.069h11.378
	l3.463-6.68h14.853l0.142,6.68H338.1L337.578,53.418z M314.4,66.349c0,0,1.934-3.911,3.076-5.464
	c2.051-2.757,4.549-3.243,6.994-3.267c1.522-0.025,2.301-0.025,2.301-0.025l0.216,8.756H314.4z"/>
<path fill="#FFFFFF" d="M497.244,14.252h-16.492c-5.016,0-11.23,1.013-15.228,6.938c-2.505,3.696-9.56,17.535-9.56,17.535h11.678
	l3.563-6.864h15.238l0.16,6.864h11.182L497.244,14.252z M473.433,27.557c0,0,1.996-4.04,3.187-5.618
	c2.088-2.818,4.668-3.334,7.16-3.365c1.584-0.024,2.363-0.024,2.363-0.024l0.24,9.007H473.433z"/>
<path fill="#FFFFFF" d="M382.413,77.229l0.786-4.182h-21.411c0,0,20.729-14.017,23.376-15.614c0.227-1.105,0.645-3.254,0.816-4.083
	h-38.393l-0.554,4.083h21.293l-23.786,15.614l-0.742,4.182H382.413z"/>
<path fill="#FFFFFF" d="M420.353,53.375c-5.281-0.288-11.992-0.258-16.16,0c-7.117,0.455-11.789,2.051-13.631,8.154
	c-0.737,2.389-1.597,6.097-2.002,8.683c-0.946,5.605,2.192,6.796,5.962,7.036c5.722,0.325,14.189,0.386,20.029,0.153
	c5.519-0.215,9.94-1.836,11.647-7.104c0.933-2.861,1.528-5.256,2.112-8.743C428.998,57.483,427.008,53.762,420.353,53.375
	 M409.902,73.017c-2.131,0.166-5.041,0.166-6.693,0.031c-1.442-0.141-3.936-0.498-3.635-3.309c0.203-1.922,1.296-6.669,2.039-8.774
	c0.773-2.297,2.604-3.23,5.286-3.353c1.965-0.11,4.366-0.11,5.993-0.019c3.566,0.215,4.918,1.499,4.372,4.298
	c-0.621,3.15-1.144,5.195-1.996,7.522C414.365,71.943,412.137,72.858,409.902,73.017"/>
<path fill="#FFFFFF" d="M334.748,14.239c-5.428-0.313-11.758-0.276-16.05-0.012c-7.282,0.478-12.097,2.118-14.019,8.368
	c-0.729,2.451-1.602,6.288-2.031,8.922c-0.958,5.759,2.266,6.987,6.146,7.221c5.864,0.337,13.976,0.405,19.962,0.171
	c5.698-0.22,10.241-1.885,11.985-7.294c0.951-2.941,1.571-5.409,2.161-8.995C343.614,18.439,341.576,14.625,334.748,14.239
	 M324.01,34.415c-2.192,0.16-4.6,0.147-6.307,0.013c-1.467-0.148-4.034-0.523-3.732-3.378c0.209-1.989,1.326-6.877,2.074-9.038
	c0.848-2.333,2.696-3.297,5.453-3.444c2.002-0.098,3.905-0.105,5.581-0.019c3.659,0.227,5.054,1.548,4.489,4.415
	c-0.633,3.248-1.161,5.342-2.027,7.718C328.577,33.285,326.287,34.231,324.01,34.415"/>
<path fill="#FFFFFF" d="M413.709,14.239c-5.408-0.313-11.746-0.276-16.038-0.012c-7.294,0.478-12.096,2.118-14.012,8.368
	c-0.737,2.451-1.608,6.288-2.032,8.922c-0.964,5.759,2.254,6.987,6.135,7.221c5.851,0.337,13.986,0.405,19.991,0.171
	c5.661-0.22,10.205-1.885,11.948-7.294c0.982-2.941,1.572-5.409,2.168-8.995C422.575,18.439,420.549,14.625,413.709,14.239
	 M402.977,34.415c-2.192,0.16-4.588,0.147-6.318,0.013c-1.461-0.148-3.984-0.523-3.703-3.378c0.197-1.989,1.321-6.877,2.076-9.038
	c0.835-2.333,2.677-3.297,5.458-3.444c1.983-0.098,3.875-0.105,5.563-0.019c3.666,0.227,5.047,1.548,4.487,4.415
	c-0.632,3.248-1.147,5.342-2.056,7.718C407.563,33.285,405.271,34.231,402.977,34.415"/>
<path fill="#FFFFFF" d="M463.813,53.375c-5.275-0.288-11.998-0.258-16.186,0c-7.086,0.455-11.765,2.051-13.619,8.154
	c-0.73,2.389-1.584,6.097-2.008,8.683c-0.927,5.605,2.211,6.796,5.992,7.036c5.686,0.325,14.172,0.386,19.999,0.153
	c5.526-0.215,9.978-1.836,11.66-7.104c0.938-2.861,1.522-5.256,2.104-8.743C472.444,57.483,470.467,53.762,463.813,53.375
	 M453.367,73.017c-2.137,0.166-5.047,0.166-6.729,0.031c-1.42-0.141-3.888-0.498-3.604-3.309c0.196-1.922,1.282-6.669,2.026-8.774
	c0.811-2.297,2.603-3.23,5.311-3.353c1.921-0.11,4.354-0.11,5.98-0.019c3.566,0.215,4.918,1.499,4.365,4.298
	c-0.613,3.15-1.117,5.195-1.965,7.522C457.813,71.943,455.596,72.858,453.367,73.017"/>
<path fill="#FFFFFF" d="M296.717,115.365c-4.409,0-5.544-1.136-5.256-4.231c0.105-0.956,0.265-2.325,0.828-3.965
	c1.125-3.224,5.472-4.948,10.961-4.948h11.365c0,0,1.142-3.077-2.818-3.077h-15.473l0.834-4.04h19.263
	c7.079,0,9.431,3.899,8.472,8.547c-0.681,3.42-2.554,11.715-2.554,11.715H296.717z M302.371,111.264h10.401l1.124-5.317h-7.718
	c-3.31,0-4.894,0.662-5.397,2.308c-0.197,0.633-0.295,0.971-0.356,1.492C300.309,110.583,300.523,111.264,302.371,111.264"/>
<path fill="#FFFFFF" d="M339.716,115.389c-9.026,0-9.916-4.519-9.093-8.375c0.264-1.264,0.416-1.774,1.067-4.002
	c1.646-5.81,5.379-7.896,14.109-7.896h19.182l-0.866,3.917h-14.484c-4.967,0-6.827,2.384-7.404,4.175
	c-0.491,1.535-0.743,2.604-0.884,3.555c-0.374,2.826,0.749,4.576,4.586,4.576h15.694l-0.928,4.051H339.716z"/>
<polygon fill="#FFFFFF" points="373.786,85.875 384.488,85.875 383.396,91.143 372.693,91.143 "/>
<polygon fill="#FFFFFF" points="378.201,115.352 382.518,95.098 372.03,95.098 367.756,115.352 "/>
<path fill="#FFFFFF" d="M420.451,103.601c-0.824,3.887-2.549,11.764-2.549,11.764h-10.389c0,0,1.461-6.478,2.143-9.786
	c0.977-4.789,0.228-5.98-5.759-5.98h-3.967l-3.347,15.767h-10.518l4.286-20.212h18.659
	C417.363,95.153,421.869,96.823,420.451,103.601"/>
<polygon fill="#FFFFFF" points="276.307,15.056 270.512,38.769 282.742,38.769 288.508,15.056 304.803,15.056 306.203,8.99 
	261.816,8.99 260.35,15.056 "/>
<polygon fill="#FFFFFF" points="439.066,18.979 434.198,38.904 444.471,38.904 449.333,18.979 463.02,18.979 464.191,13.87 
	426.91,13.87 425.67,18.979 "/>
<polygon fill="#FFFFFF" points="356.907,29.558 354.82,38.909 364.92,38.909 367.217,29.558 385.846,13.821 375.948,13.809 
	362.342,24.604 352.555,13.809 343.362,13.821 "/>
<path fill="#FFFFFF" d="M422.871,126.65l3.002-5.299h8.688c9.591,0,10.824-5.617,10.824-5.617h-14.612
	c-3.556,0-6.534-1.142-5.724-6.048c0.351-2.154,0.651-3.887,1.566-6.748c1.535-4.661,6.631-7.822,16.161-7.822
	c10.161,0,17.333,0.067,17.333,0.067s-1.947,11.242-3.967,18.937c-2.609,9.854-9.02,12.53-21.238,12.53H422.871z M446.178,111.374
	l2.511-11.832c0,0-1.965,0.025-3.499,0.057c-4.096,0.086-7.909,1.148-9.068,5.366c-0.442,1.522-0.621,2.468-0.774,3.579
	c-0.234,1.781,1.216,2.83,3.929,2.83H446.178z"/>
<path fill="#FFFFFF" d="M290.773,93.297c-0.461,2.297-0.921,3.623-1.693,5.14c-1.426,2.854-4.287,4.403-8.34,4.942
	c-1.578,0.209-3.709,0.148-3.709,0.148l8.461,11.984h-12.537l-11.716-16.694c0,0,10.224-0.03,11.255-0.03
	c2.475,0,5.692-0.713,6.588-2.406c0.271-0.486,0.67-1.371,0.67-2.285c0.03-1.129-1.086-2.082-2.94-2.082
	c-1.904,0-18.384-0.006-18.384-0.006l-5.827,23.18H240.77l7.404-28.871h33.973C288.508,86.317,291.479,89.497,290.773,93.297"/>
<path fill="#FFFFFF" d="M296.115,60.191l-19.568,0.013l-1.849,5.507h9.726l-1.584,5.311h-15.682c-3.413,0-4.862-0.829-4.531-3.242
	c0.398-2.726,1.419-5.041,2.352-7.552c1.897-5.115,4.611-6.416,15.959-6.416c5.998,0,16.971,0.018,16.971,0.018l1.805-5.784h-20.408
	c-16.615,0-22.308,1.953-25.482,10.082c-1.08,2.757-2.689,7.853-3.408,12.047c-0.834,4.942,2.984,6.877,7.037,7.011
	c5.605,0.204,33.875,0.093,33.875,0.093L296.115,60.191z"/>
<path fill="#FFFFFF" d="M50.692,150.493c-0.338-0.4-0.786-0.602-1.333-0.602h-9.118l-2.431,17.32h2.094l1.062-7.552h7.092
	c0.558,0,1.037-0.185,1.479-0.565l1.456-1.282c0.436-0.388,0.712-0.885,0.786-1.426l0.442-3.118c0.08-0.571-0.056-1.051-0.411-1.469
	L50.692,150.493z M48.156,157.566h-6.895l0.779-5.575h6.994c0.074,0,0.092,0.012,0.129,0.055l0.927,1.081
	c0.037,0.049,0.043,0.074,0.037,0.142l-0.412,2.923c-0.005,0.066-0.03,0.115-0.11,0.184l-1.258,1.111
	C48.285,157.535,48.218,157.566,48.156,157.566"/>
<path fill="#FFFFFF" d="M65.312,154.699l-1.142,8.104c-0.006,0.074-0.024,0.117-0.11,0.191l-2.481,2.186
	c-0.068,0.062-0.16,0.086-0.221,0.086h-2.653c-0.049,0-0.085-0.019-0.122-0.056l-0.842-0.981c-0.036-0.043-0.049-0.073-0.036-0.136
	l1.32-9.394h-1.971l-1.302,9.32c-0.086,0.577,0.049,1.08,0.399,1.485l0.952,1.112c0.338,0.397,0.78,0.595,1.351,0.595h2.708
	c0.552,0,1.055-0.197,1.504-0.595l1.258-1.112l0.173,1.707h1.989l-0.24-2.314l1.437-10.198H65.312z"/>
<path fill="#FFFFFF" d="M75.528,157.713l1.105-0.989c0.08-0.066,0.129-0.08,0.196-0.08h3.801c0.056,0,0.093,0.02,0.129,0.056
	l1.529,1.8l1.517-1.369l-1.566-1.83c-0.344-0.406-0.786-0.602-1.357-0.602h-3.905c-0.559,0-1.038,0.184-1.474,0.57l-1.258,1.105
	c-0.449,0.398-0.713,0.878-0.792,1.449l-0.227,1.64c-0.074,0.515,0.042,1.006,0.337,1.387c0.282,0.356,0.706,0.59,1.197,0.651
	l6.085,0.724c0.056,0.007,0.086,0.038,0.105,0.063c0.03,0.037,0.043,0.086,0.037,0.142l-0.203,1.454
	c-0.025,0.154-0.068,0.265-0.129,0.314l-1.118,0.981c-0.061,0.056-0.128,0.086-0.19,0.086h-3.806c-0.068,0-0.087-0.012-0.124-0.056
	l-1.553-1.817l-1.516,1.364l1.584,1.86c0.344,0.398,0.792,0.595,1.363,0.595H79.2c0.54,0,1.05-0.196,1.474-0.571l1.252-1.104
	c0.467-0.405,0.712-0.878,0.804-1.498l0.228-1.634c0.073-0.527-0.05-1.037-0.344-1.417c-0.283-0.369-0.694-0.597-1.167-0.652
	l-6.103-0.779c-0.056-0.007-0.086-0.037-0.105-0.061c-0.03-0.031-0.042-0.087-0.03-0.137l0.203-1.461
	C75.417,157.83,75.442,157.781,75.528,157.713"/>
<path fill="#FFFFFF" d="M99.106,155.3c-0.35-0.406-0.792-0.602-1.363-0.602h-2.702c-0.546,0-1.055,0.202-1.498,0.596l-1.117,0.981
	l0.896-6.386h-1.965l-2.431,17.321h1.965l1.135-8.105c0.007-0.066,0.031-0.115,0.111-0.189l2.487-2.192
	c0.061-0.055,0.159-0.08,0.221-0.08h2.653c0.049,0,0.091,0.02,0.122,0.057l0.835,0.981c0.043,0.049,0.056,0.074,0.043,0.142
	l-1.32,9.388h1.971l1.308-9.314c0.08-0.576-0.061-1.08-0.405-1.491L99.106,155.3z"/>
<polygon fill="#FFFFFF" points="105.916,156.644 108.445,156.644 106.959,167.211 108.924,167.211 110.687,154.699 106.192,154.699 
	"/>
<polygon fill="#FFFFFF" points="108.648,152.543 111.288,152.543 111.657,149.89 109.016,149.89 "/>
<path fill="#FFFFFF" d="M126.65,155.3c-0.35-0.406-0.792-0.602-1.363-0.602h-2.702c-0.552,0-1.056,0.202-1.504,0.596l-1.265,1.111
	l-0.166-1.707h-1.995l0.239,2.32l-1.425,10.192h1.96l1.141-8.105c0.007-0.066,0.031-0.115,0.117-0.189l2.481-2.192
	c0.067-0.055,0.153-0.08,0.22-0.08h2.647c0.055,0,0.098,0.02,0.129,0.057l0.835,0.981c0.043,0.049,0.055,0.074,0.043,0.142
	l-1.32,9.388h1.964l1.315-9.314c0.073-0.576-0.056-1.08-0.405-1.491L126.65,155.3z"/>
<path fill="#FFFFFF" d="M143.547,156.43l-0.945-1.105c-0.351-0.412-0.823-0.627-1.382-0.627h-3.328
	c-0.547,0-1.038,0.186-1.467,0.571l-1.259,1.106c-0.436,0.386-0.725,0.914-0.805,1.504l-0.859,6.14
	c-0.086,0.577,0.055,1.081,0.405,1.486l0.946,1.11c0.343,0.399,0.786,0.597,1.357,0.597h3.334c0.546,0,1.044-0.197,1.498-0.597
	l1.118-0.976l-0.455,3.155c-0.006,0.062-0.043,0.13-0.111,0.185l-1.105,0.982c-0.085,0.073-0.134,0.086-0.196,0.086h-4.507
	c-0.061,0-0.086-0.013-0.122-0.056l-1.437-1.725l-1.547,1.369l1.503,1.756c0.344,0.412,0.78,0.596,1.357,0.596h4.606
	c0.571,0,1.025-0.173,1.473-0.564l1.253-1.106c0.436-0.386,0.718-0.896,0.798-1.448l1.658-11.825l0.798-2.347h-1.965L143.547,156.43
	z M139.734,165.265h-3.273c-0.049,0-0.098-0.018-0.128-0.055l-0.835-0.982c-0.043-0.044-0.049-0.068-0.043-0.136l0.853-6.066
	c0.018-0.129,0.092-0.275,0.129-0.313l1.117-0.989c0.062-0.049,0.13-0.08,0.191-0.08h3.279c0.092,0,0.128,0.031,0.153,0.056
	l1.867,2.187c0.03,0.043,0.049,0.085,0.037,0.146l-0.528,3.771c-0.007,0.068-0.049,0.135-0.111,0.189l-2.48,2.187
	C139.895,165.24,139.821,165.265,139.734,165.265"/>
<path fill="#FFFFFF" d="M171.976,149.891h-1.971l-0.675,4.808h-1.701l-0.27,1.946h1.7l-1.031,7.318
	c-0.092,0.657,0.024,1.1,0.399,1.541l0.945,1.112c0.344,0.397,0.786,0.595,1.364,0.595h2.682l0.277-1.946h-2.714
	c-0.068,0-0.086-0.012-0.123-0.056l-0.835-0.976c-0.018-0.037-0.036-0.179-0.031-0.271l1.038-7.318h3.875l0.269-1.946H171.3
	L171.976,149.891z"/>
<path fill="#FFFFFF" d="M189.083,155.3c-0.338-0.406-0.78-0.602-1.357-0.602h-2.708c-0.541,0-1.044,0.202-1.492,0.596l-1.118,0.981
	l0.903-6.386h-1.971l-2.438,17.321h1.972l1.141-8.105c0.007-0.066,0.025-0.115,0.105-0.189l2.486-2.192
	c0.068-0.055,0.166-0.08,0.222-0.08h2.659c0.049,0,0.085,0.02,0.116,0.057l0.841,0.981c0.037,0.049,0.049,0.074,0.037,0.142
	l-1.314,9.388h1.965l1.308-9.314c0.08-0.576-0.056-1.08-0.411-1.491L189.083,155.3z"/>
<path fill="#FFFFFF" d="M205.599,155.3c-0.344-0.406-0.786-0.602-1.357-0.602h-4.611c-0.564,0-1.019,0.172-1.474,0.57l-1.252,1.105
	c-0.442,0.393-0.712,0.891-0.792,1.449l-0.872,6.194c-0.08,0.56,0.068,1.088,0.405,1.486l0.946,1.112
	c0.344,0.397,0.786,0.595,1.357,0.595h4.611c0.571,0,1.025-0.171,1.474-0.571l1.964-1.737l-1.209-1.412l-1.892,1.688
	c-0.079,0.074-0.128,0.086-0.196,0.086h-4.5c-0.068,0-0.086-0.012-0.13-0.056l-0.835-0.982c-0.03-0.036-0.042-0.086-0.036-0.135
	l0.368-2.64h8.885l0.497-3.556c0.086-0.576-0.055-1.08-0.405-1.492L205.599,155.3z M199.483,156.644h4.507
	c0.067,0,0.085,0.014,0.129,0.056l0.835,0.982c0.042,0.05,0.049,0.104,0.036,0.142l-0.227,1.658h-6.92l0.227-1.585
	c0.007-0.067,0.05-0.135,0.111-0.184l1.112-0.989C199.373,156.658,199.421,156.644,199.483,156.644"/>
<polygon fill="#FFFFFF" points="226.144,151.837 228.672,151.837 226.511,167.212 228.483,167.212 230.915,149.89 226.414,149.89 
	"/>
<polygon fill="#FFFFFF" points="236.655,156.644 239.178,156.644 237.692,167.211 239.664,167.211 241.42,154.699 236.925,154.699 
	"/>
<polygon fill="#FFFFFF" points="239.381,152.543 242.021,152.543 242.391,149.89 239.755,149.89 "/>
<path fill="#FFFFFF" d="M262.91,155.3c-0.344-0.406-0.787-0.602-1.357-0.602h-1.277c-0.546,0-1.063,0.209-1.498,0.596l-1.541,1.356
	l-1.154-1.351c-0.344-0.406-0.785-0.602-1.363-0.602h-1.277c-0.546,0-1.05,0.202-1.498,0.596l-1.265,1.111l-0.165-1.707h-1.996
	l0.245,2.32l-1.436,10.192h1.971l1.136-8.105c0.006-0.066,0.024-0.115,0.111-0.189l2.487-2.187c0.067-0.061,0.158-0.086,0.215-0.086
	h1.228c0.049,0,0.092,0.02,0.123,0.057l0.835,0.981c0.043,0.049,0.055,0.074,0.043,0.142l-1.314,9.388h1.965l1.143-8.105
	c0.006-0.072,0.029-0.115,0.109-0.189l2.481-2.192c0.067-0.055,0.159-0.08,0.222-0.08h1.228c0.049,0,0.092,0.02,0.123,0.057
	l0.835,0.981c0.042,0.049,0.049,0.074,0.042,0.142l-1.319,9.388h1.965l1.313-9.314c0.08-0.576-0.056-1.08-0.405-1.491L262.91,155.3z
	"/>
<polygon fill="#FFFFFF" points="269.848,156.644 272.377,156.644 270.893,167.211 272.857,167.211 274.619,154.699 270.124,154.699 
	"/>
<polygon fill="#FFFFFF" points="272.574,152.543 275.221,152.543 275.595,149.89 272.955,149.89 "/>
<path fill="#FFFFFF" d="M285.475,149.891h-1.965l-0.676,4.808h-1.701l-0.275,1.946h1.7l-1.031,7.318
	c-0.086,0.657,0.031,1.1,0.399,1.541l0.951,1.112c0.338,0.397,0.787,0.595,1.363,0.595h2.678l0.276-1.946h-2.715
	c-0.062,0-0.08-0.012-0.116-0.056l-0.836-0.976c-0.023-0.037-0.042-0.179-0.023-0.271l1.019-7.318h3.881l0.271-1.946h-3.875
	L285.475,149.891z"/>
<path fill="#FFFFFF" d="M295.071,157.713l1.111-0.989c0.079-0.066,0.129-0.08,0.196-0.08h3.801c0.05,0,0.092,0.02,0.123,0.056
	l1.535,1.8l1.517-1.369l-1.565-1.83c-0.344-0.406-0.793-0.602-1.357-0.602h-3.905c-0.558,0-1.038,0.184-1.479,0.57l-1.252,1.105
	c-0.449,0.398-0.713,0.878-0.799,1.449l-0.227,1.64c-0.074,0.515,0.049,1.006,0.343,1.387c0.277,0.356,0.707,0.59,1.198,0.651
	l6.078,0.724c0.062,0.007,0.092,0.038,0.111,0.063c0.029,0.037,0.043,0.086,0.035,0.142l-0.208,1.454
	c-0.019,0.154-0.067,0.265-0.122,0.314l-1.117,0.981c-0.063,0.056-0.136,0.086-0.197,0.086h-3.801c-0.067,0-0.092-0.012-0.129-0.056
	l-1.547-1.817l-1.517,1.364l1.584,1.86c0.343,0.398,0.786,0.595,1.356,0.595h3.91c0.535,0,1.051-0.196,1.475-0.571l1.253-1.104
	c0.461-0.405,0.712-0.878,0.804-1.498l0.227-1.634c0.074-0.527-0.049-1.037-0.35-1.417c-0.275-0.369-0.693-0.597-1.16-0.652
	l-6.103-0.779c-0.056-0.007-0.086-0.037-0.104-0.061c-0.031-0.031-0.043-0.087-0.037-0.137l0.209-1.461
	C294.967,157.83,294.985,157.781,295.071,157.713"/>
<path fill="#FFFFFF" d="M328.123,150.461l-1.26,1.105c-0.478,0.43-0.711,0.848-0.797,1.499l-0.233,1.633h-1.701l-0.271,1.945h1.701
	l-1.485,10.567h1.97l1.48-10.567h3.881l0.27-1.945h-3.874l0.208-1.48c0.014-0.104,0.086-0.275,0.129-0.313l1.112-0.982
	c0.08-0.074,0.129-0.086,0.197-0.086h2.633l0.271-1.946h-2.756C329.044,149.891,328.559,150.082,328.123,150.461"/>
<path fill="#FFFFFF" d="M344.916,155.3c-0.344-0.405-0.786-0.603-1.363-0.603h-4.599c-0.56,0-1.038,0.186-1.474,0.571l-1.258,1.106
	c-0.449,0.397-0.713,0.877-0.793,1.447l-0.865,6.196c-0.086,0.577,0.049,1.081,0.398,1.486l0.952,1.11
	c0.337,0.399,0.786,0.597,1.356,0.597h4.599c0.56,0,1.045-0.186,1.474-0.571l1.26-1.106c0.435-0.386,0.718-0.913,0.804-1.498
	l0.86-6.14c0.08-0.577-0.051-1.08-0.406-1.492L344.916,155.3z M342.018,165.265h-4.5c-0.049,0-0.092-0.018-0.123-0.055l-0.842-0.982
	c-0.035-0.044-0.049-0.068-0.035-0.136l0.871-6.195c0.013-0.079,0.037-0.123,0.11-0.184l1.111-0.989
	c0.062-0.049,0.129-0.08,0.196-0.08h4.5c0.051,0,0.092,0.019,0.123,0.056l0.836,0.982c0.043,0.049,0.055,0.074,0.043,0.141
	l-0.854,6.062c-0.014,0.135-0.08,0.275-0.123,0.313l-1.118,0.982C342.153,165.234,342.085,165.265,342.018,165.265"/>
<path fill="#FFFFFF" d="M360.523,155.3c-0.343-0.406-0.785-0.602-1.363-0.602h-1.971c-0.552,0-1.056,0.202-1.504,0.596l-1.259,1.111
	l-0.171-1.707h-1.99l0.239,2.32l-1.438,10.192h1.972l1.137-8.105c0.012-0.066,0.029-0.115,0.115-0.189l2.488-2.192
	c0.061-0.055,0.152-0.08,0.207-0.08h1.936c0.049,0,0.092,0.02,0.123,0.057l0.835,0.981c0.042,0.049,0.055,0.074,0.042,0.142
	l-0.295,2.094h1.966l0.282-2.021c0.086-0.576-0.055-1.08-0.405-1.491L360.523,155.3z"/>
<path fill="#FFFFFF" d="M392.943,150.542c-0.369-0.43-0.842-0.65-1.4-0.65h-9.069l-2.437,17.32h9.148
	c0.547,0,1.051-0.196,1.498-0.595l1.486-1.308c0.417-0.375,0.688-0.854,0.761-1.4l0.368-2.616c0.08-0.559-0.049-1.013-0.393-1.418
	l-1.1-1.284l1.463-1.282c0.447-0.394,0.717-0.872,0.791-1.418l0.368-2.622c0.074-0.559-0.049-1.038-0.368-1.419L392.943,150.542z
	 M391.249,151.991c0.086,0,0.123,0.031,0.147,0.055l0.945,1.105c0.006,0.012,0.031,0.037,0.012,0.141l-0.344,2.469
	c-0.012,0.08-0.037,0.122-0.109,0.19l-1.721,1.511c-0.055,0.049-0.129,0.079-0.189,0.079h-6.496l0.779-5.55H391.249z
	 M389.327,165.112h-6.902l0.781-5.526h6.569c0.037,0,0.086,0.014,0.129,0.063l1.283,1.51c0.043,0.043,0.055,0.067,0.043,0.135
	l-0.345,2.444c-0.005,0.066-0.03,0.116-0.11,0.189l-1.258,1.105C389.456,165.081,389.389,165.112,389.327,165.112"/>
<path fill="#FFFFFF" d="M409.337,155.3c-0.344-0.406-0.786-0.602-1.362-0.602h-4.605c-0.565,0-1.025,0.172-1.475,0.57l-1.258,1.105
	c-0.436,0.393-0.713,0.891-0.793,1.449l-0.871,6.194c-0.074,0.56,0.067,1.088,0.411,1.486l0.946,1.112
	c0.337,0.397,0.786,0.595,1.357,0.595h4.604c0.565,0,1.024-0.171,1.474-0.571l1.971-1.737l-1.217-1.412l-1.891,1.688
	c-0.079,0.074-0.122,0.086-0.189,0.086h-4.508c-0.061,0-0.086-0.012-0.123-0.056l-0.834-0.982c-0.037-0.036-0.05-0.086-0.043-0.135
	l0.375-2.64h8.879l0.502-3.556c0.08-0.576-0.055-1.08-0.404-1.492L409.337,155.3z M403.223,156.644h4.5
	c0.067,0,0.092,0.014,0.129,0.056l0.834,0.982c0.043,0.05,0.049,0.104,0.037,0.142l-0.232,1.658h-6.908l0.222-1.585
	c0.013-0.067,0.05-0.135,0.11-0.184l1.111-0.989C403.111,156.658,403.154,156.644,403.223,156.644"/>
<path fill="#FFFFFF" d="M420.844,149.891h-1.971l-0.676,4.808h-1.701l-0.27,1.946h1.7l-1.031,7.318
	c-0.092,0.657,0.025,1.1,0.399,1.541l0.945,1.112c0.344,0.397,0.785,0.595,1.356,0.595h2.69l0.27-1.946h-2.708
	c-0.067,0-0.086-0.012-0.129-0.056l-0.829-0.976c-0.023-0.037-0.043-0.179-0.023-0.271l1.024-7.318h3.874l0.277-1.946h-3.875
	L420.844,149.891z"/>
<path fill="#FFFFFF" d="M433.922,149.891h-1.965l-0.676,4.808h-1.7l-0.271,1.946h1.701l-1.031,7.318
	c-0.099,0.657,0.018,1.1,0.398,1.541l0.946,1.112c0.344,0.397,0.792,0.595,1.356,0.595h2.689l0.27-1.946h-2.707
	c-0.067,0-0.093-0.012-0.129-0.056l-0.83-0.976c-0.018-0.037-0.041-0.179-0.029-0.271l1.031-7.318h3.881l0.27-1.946h-3.881
	L433.922,149.891z"/>
<path fill="#FFFFFF" d="M451.414,155.3c-0.343-0.406-0.791-0.602-1.363-0.602h-4.598c-0.572,0-1.031,0.172-1.474,0.57l-1.265,1.105
	c-0.437,0.393-0.713,0.891-0.793,1.449l-0.871,6.194c-0.08,0.56,0.067,1.088,0.412,1.486l0.944,1.112
	c0.345,0.397,0.786,0.595,1.363,0.595h4.599c0.571,0,1.025-0.171,1.475-0.571l1.971-1.737l-1.216-1.412l-1.886,1.688
	c-0.08,0.074-0.129,0.086-0.195,0.086h-4.502c-0.067,0-0.085-0.012-0.122-0.056l-0.841-0.982c-0.031-0.036-0.043-0.086-0.037-0.135
	l0.361-2.64h8.892l0.491-3.556c0.086-0.576-0.049-1.08-0.405-1.492L451.414,155.3z M445.306,156.644h4.495
	c0.072,0,0.092,0.014,0.129,0.056l0.841,0.982c0.036,0.05,0.043,0.104,0.036,0.142l-0.233,1.658h-6.913l0.221-1.585
	c0.013-0.067,0.05-0.135,0.11-0.184l1.118-0.989C445.189,156.658,445.231,156.644,445.306,156.644"/>
<path fill="#FFFFFF" d="M468.22,156.405l-0.951-1.104c-0.338-0.405-0.786-0.602-1.356-0.602h-1.971
	c-0.554,0-1.063,0.202-1.506,0.595l-1.264,1.111l-0.166-1.706h-1.996l0.232,2.32l-1.424,10.192h1.965l1.143-8.104
	c0.006-0.068,0.031-0.117,0.111-0.19l2.479-2.186c0.067-0.063,0.16-0.086,0.222-0.086h1.928c0.049,0,0.092,0.018,0.123,0.055
	l0.835,0.983c0.043,0.049,0.055,0.073,0.043,0.14l-0.289,2.094h1.965l0.283-2.02C468.712,157.32,468.57,156.817,468.22,156.405"/>
</svg>
