<?xml version="1.0" encoding="utf-8"?>
<!-- Generator: Adobe Illustrator 16.0.0, SVG Export Plug-In . SVG Version: 6.00 Build 0)  -->
<!DOCTYPE svg PUBLIC "-//W3C//DTD SVG 1.1//EN" "http://www.w3.org/Graphics/SVG/1.1/DTD/svg11.dtd">
<svg version="1.1" id="Capa_1" xmlns="http://www.w3.org/2000/svg" xmlns:xlink="http://www.w3.org/1999/xlink" x="0px" y="0px"
	 width="234.521px" height="59.25px" viewBox="0 0 234.521 59.25" enable-background="new 0 0 234.521 59.25" xml:space="preserve">
<path fill="#FFFFFF" d="M113.958,1.742l-13.495,53.677H1.696L15.195,1.742H113.958z M115.33,0.672h-1.372H15.195h-0.836
	l-0.203,0.808L0.658,55.156l-0.334,1.333h1.372h98.767h0.831l0.203-0.812L114.996,2L115.33,0.672z"/>
<polygon fill="#E30613" points="64.521,1.74 63.499,1.74 49.992,55.417 100.462,55.417 113.958,1.74 "/>
<polygon points="15.195,1.74 1.692,55.417 50.799,55.417 64.302,1.74 "/>
<g>
	<path fill="#FFFFFF" d="M103.18,30.854c-0.414,2.195-0.875,3.456-1.599,4.9c-1.352,2.709-4.085,4.184-7.934,4.701
		c-1.504,0.19-3.516,0.131-3.516,0.131l8.042,11.423H86.245L75.077,36.112c0,0,9.724-0.023,10.734-0.023
		c2.327,0,5.405-0.685,6.264-2.283c0.255-0.485,0.629-1.308,0.645-2.175c0.004-1.082-1.042-1.989-2.824-1.989
		c-1.786,0-17.492-0.012-17.492-0.012l-5.536,22.074H55.584l7.084-27.503c0,0,26.755-0.009,32.319-0.009
		C101.036,24.192,103.872,27.239,103.18,30.854"/>
	<path fill="#FFFFFF" d="M51.584,35.568l-18.59,0.02l-1.746,5.218h9.235l-1.503,5.039H24.09c-3.245,0-4.61-0.791-4.279-3.069
		c0.366-2.589,1.332-4.781,2.211-7.18c1.794-4.852,4.375-6.085,15.145-6.085c5.712,0,16.116,0.009,16.116,0.009l1.706-5.466
		c0,0-15.364-0.004-19.361-0.004c-15.782,0-21.179,1.842-24.197,9.562c-1.019,2.621-2.554,7.454-3.234,11.435
		c-0.803,4.689,2.824,6.523,6.686,6.658c5.341,0.175,32.144,0.091,32.144,0.091L51.584,35.568z"/>
	<path fill="#FFFFFF" d="M158.326,24.259h-7.596c-2.304,0-5.16,0.465-6.996,3.189c-1.158,1.694-4.412,8.066-4.412,8.066h5.377
		l1.64-3.158h7.017l0.066,3.158h5.15L158.326,24.259z M147.373,30.371c0,0,0.914-1.849,1.455-2.581
		c0.967-1.305,2.147-1.535,3.306-1.547c0.716-0.012,1.085-0.012,1.085-0.012l0.104,4.14H147.373z"/>
	<path fill="#FFFFFF" d="M233.791,5.749h-7.796c-2.37,0-5.31,0.48-7.194,3.28c-1.186,1.746-4.522,8.285-4.522,8.285h5.521
		l1.682-3.242h7.203l0.076,3.242h5.285L233.791,5.749z M222.535,12.036c0,0,0.943-1.908,1.507-2.652
		c0.987-1.332,2.204-1.575,3.381-1.591c0.753-0.013,1.118-0.013,1.118-0.013l0.115,4.256H222.535z"/>
	<path fill="#FFFFFF" d="M179.518,35.514l0.369-1.978H169.77c0,0,9.8-6.626,11.049-7.381c0.107-0.521,0.303-1.536,0.385-1.925
		H163.06l-0.263,1.925h10.063l-11.24,7.381l-0.35,1.978H179.518z"/>
	<path fill="#FFFFFF" d="M197.449,24.24c-2.498-0.14-5.668-0.123-7.641,0c-3.36,0.215-5.572,0.971-6.439,3.854
		c-0.35,1.126-0.755,2.88-0.945,4.105c-0.446,2.647,1.033,3.209,2.815,3.32c2.704,0.159,6.705,0.184,9.466,0.075
		c2.608-0.103,4.696-0.867,5.508-3.356c0.438-1.356,0.721-2.485,0.998-4.132C201.533,26.181,200.596,24.423,197.449,24.24
		 M192.51,33.523c-1.006,0.079-2.383,0.079-3.162,0.012c-0.684-0.064-1.861-0.235-1.719-1.563c0.096-0.906,0.613-3.149,0.963-4.144
		c0.365-1.086,1.229-1.528,2.498-1.587c0.927-0.052,2.063-0.052,2.832-0.008c1.686,0.099,2.326,0.708,2.067,2.031
		c-0.294,1.488-0.541,2.454-0.942,3.557C194.617,33.014,193.567,33.448,192.51,33.523"/>
	<path fill="#FFFFFF" d="M156.99,5.745c-2.564-0.152-5.557-0.133-7.585-0.009c-3.444,0.227-5.72,1.002-6.626,3.957
		c-0.346,1.157-0.756,2.972-0.962,4.217c-0.45,2.72,1.073,3.301,2.907,3.411c2.771,0.159,6.605,0.191,9.434,0.08
		c2.693-0.103,4.84-0.891,5.664-3.447c0.449-1.389,0.743-2.559,1.021-4.248C161.182,7.729,160.215,5.924,156.99,5.745
		 M151.915,15.277c-1.038,0.076-2.172,0.072-2.983,0.004c-0.691-0.067-1.904-0.246-1.762-1.595c0.1-0.938,0.625-3.249,0.982-4.271
		c0.398-1.103,1.273-1.561,2.578-1.627c0.941-0.049,1.845-0.053,2.637-0.009c1.727,0.107,2.387,0.732,2.119,2.084
		c-0.299,1.535-0.549,2.526-0.958,3.651C154.071,14.745,152.993,15.19,151.915,15.277"/>
	<path fill="#FFFFFF" d="M194.307,5.745c-2.554-0.152-5.549-0.133-7.578-0.009c-3.447,0.227-5.715,1.002-6.621,3.957
		c-0.351,1.157-0.76,2.972-0.963,4.217c-0.453,2.72,1.066,3.301,2.899,3.411c2.769,0.159,6.61,0.191,9.45,0.08
		c2.677-0.103,4.82-0.891,5.648-3.447c0.461-1.389,0.738-2.559,1.021-4.248C198.498,7.729,197.539,5.924,194.307,5.745
		 M189.234,15.277c-1.033,0.076-2.168,0.072-2.982,0.004c-0.691-0.067-1.885-0.246-1.75-1.595c0.091-0.938,0.62-3.249,0.979-4.271
		c0.394-1.103,1.265-1.561,2.582-1.627c0.934-0.049,1.828-0.053,2.629-0.009c1.729,0.107,2.382,0.732,2.119,2.084
		c-0.299,1.535-0.541,2.526-0.971,3.651C191.402,14.745,190.32,15.19,189.234,15.277"/>
	<path fill="#FFFFFF" d="M217.988,24.24c-2.494-0.14-5.672-0.123-7.649,0c-3.348,0.215-5.56,0.971-6.438,3.854
		c-0.342,1.126-0.747,2.88-0.946,4.105c-0.438,2.647,1.046,3.209,2.831,3.32c2.689,0.159,6.697,0.184,9.449,0.075
		c2.615-0.103,4.718-0.867,5.514-3.356c0.441-1.356,0.721-2.485,0.994-4.132C222.068,26.181,221.135,24.423,217.988,24.24
		 M213.053,33.523c-1.011,0.079-2.387,0.079-3.183,0.012c-0.668-0.064-1.837-0.235-1.702-1.563c0.092-0.906,0.604-3.149,0.958-4.144
		c0.382-1.086,1.229-1.528,2.511-1.587c0.906-0.052,2.055-0.052,2.823-0.008c1.687,0.099,2.327,0.708,2.068,2.031
		c-0.294,1.488-0.529,2.454-0.931,3.557C215.152,33.014,214.105,33.448,213.053,33.523"/>
	<path fill="#FFFFFF" d="M139.016,53.536c-2.084,0-2.621-0.536-2.482-2.001c0.049-0.448,0.125-1.097,0.391-1.872
		c0.533-1.523,2.584-2.339,5.179-2.339h5.373c0,0,0.537-1.451-1.332-1.451h-7.315l0.395-1.909h9.104c3.35,0,4.459,1.841,4.006,4.037
		c-0.322,1.613-1.205,5.535-1.205,5.535H139.016z M141.688,51.6h4.916l0.533-2.514h-3.651c-1.563,0-2.311,0.314-2.55,1.09
		c-0.091,0.298-0.14,0.458-0.167,0.704C140.713,51.277,140.813,51.6,141.688,51.6"/>
	<path fill="#FFFFFF" d="M159.338,53.549c-4.268,0-4.686-2.136-4.301-3.957c0.129-0.601,0.199-0.84,0.506-1.893
		c0.779-2.745,2.545-3.731,6.67-3.731h9.064l-0.41,1.85h-6.845c-2.346,0-3.226,1.126-3.5,1.973
		c-0.229,0.729-0.351,1.233-0.417,1.683c-0.175,1.337,0.354,2.159,2.167,2.159h7.423l-0.443,1.917H159.338z"/>
	<polygon fill="#FFFFFF" points="175.441,39.6 180.496,39.6 179.982,42.09 174.924,42.09 	"/>
	<polygon fill="#FFFFFF" points="177.527,53.531 179.566,43.959 174.611,43.959 172.591,53.531 	"/>
	<path fill="#FFFFFF" d="M197.494,47.978c-0.39,1.838-1.205,5.56-1.205,5.56h-4.907c0,0,0.688-3.062,1.01-4.625
		c0.461-2.263,0.108-2.827-2.72-2.827h-1.874l-1.583,7.452h-4.971l2.023-9.553h8.822C196.035,43.984,198.162,44.771,197.494,47.978"
		/>
	<polygon fill="#FFFFFF" points="129.371,6.129 126.631,17.337 132.414,17.337 135.138,6.129 142.838,6.129 143.498,3.261 
		122.521,3.261 121.83,6.129 	"/>
	<polygon fill="#FFFFFF" points="206.294,7.983 203.99,17.401 208.847,17.401 211.146,7.983 217.613,7.983 218.166,5.569 
		200.547,5.569 199.962,7.983 	"/>
	<polygon fill="#FFFFFF" points="167.463,12.982 166.477,17.401 171.249,17.401 172.335,12.982 181.137,5.546 176.463,5.541 
		170.032,10.64 165.407,5.541 161.064,5.546 	"/>
	<path fill="#FFFFFF" d="M198.637,58.869l1.42-2.502h4.107c4.53,0,5.115-2.657,5.115-2.657h-6.908c-1.679,0-3.086-0.541-2.705-2.854
		c0.168-1.022,0.311-1.838,0.74-3.19c0.729-2.204,3.135-3.699,7.641-3.699c4.801,0,8.192,0.032,8.192,0.032
		s-0.922,5.313-1.877,8.949c-1.233,4.661-4.264,5.922-10.034,5.922H198.637z M209.653,51.65l1.185-5.592
		c0,0-0.926,0.012-1.649,0.027c-1.937,0.04-3.739,0.541-4.288,2.533c-0.211,0.72-0.294,1.17-0.365,1.695
		c-0.111,0.839,0.572,1.336,1.857,1.336H209.653z"/>
	<path fill="#E30613" d="M136.206,43.107c-0.219,1.086-0.434,1.714-0.799,2.43c-0.677,1.348-2.024,2.08-3.942,2.335
		c-0.744,0.099-1.754,0.071-1.754,0.071l4.002,5.664h-5.927l-5.536-7.892c0,0,4.832-0.016,5.317-0.016
		c1.17,0,2.688-0.334,3.114-1.137c0.127-0.228,0.314-0.646,0.314-1.078c0.016-0.533-0.509-0.982-1.388-0.982
		c-0.899,0-8.69-0.004-8.69-0.004l-2.752,10.953h-5.592l3.5-13.646h16.056C135.137,39.806,136.541,41.309,136.206,43.107"/>
	<path fill="#FFFFFF" d="M138.73,27.46l-9.246,0.004l-0.875,2.605h4.598l-0.748,2.51h-7.414c-1.611,0-2.299-0.395-2.141-1.531
		c0.188-1.289,0.67-2.383,1.111-3.572c0.898-2.418,2.18-3.03,7.541-3.03c2.836,0,8.021,0.008,8.021,0.008l0.855-2.732h-9.649
		c-7.851,0-10.539,0.923-12.039,4.766c-0.513,1.304-1.272,3.71-1.615,5.694c-0.393,2.335,1.412,3.25,3.329,3.313
		c2.648,0.096,16.009,0.044,16.009,0.044L138.73,27.46z"/>
</g>
</svg>
