<?xml version="1.0" encoding="utf-8"?>
<!-- Generator: Adobe Illustrator 16.0.0, SVG Export Plug-In . SVG Version: 6.00 Build 0)  -->
<!DOCTYPE svg PUBLIC "-//W3C//DTD SVG 1.1//EN" "http://www.w3.org/Graphics/SVG/1.1/DTD/svg11.dtd">
<svg version="1.1" id="Capa_1" xmlns="http://www.w3.org/2000/svg" xmlns:xlink="http://www.w3.org/1999/xlink" x="0px" y="0px"
	 width="234.719px" height="60.063px" viewBox="0 0 234.719 60.063" enable-background="new 0 0 234.719 60.063"
	 xml:space="preserve">
<path fill="#FFFFFF" d="M114.362,1.499l-13.5,53.687H2.077L15.579,1.499H114.362z M115.733,0.429h-1.372H15.579h-0.834l-0.204,0.81
	L1.039,54.925l-0.335,1.331h1.373h98.785h0.834l0.204-0.809L115.398,1.76L115.733,0.429z"/>
<polygon fill="#E30613" points="64.915,1.499 63.89,1.499 50.382,55.186 100.862,55.186 114.361,1.499 "/>
<polygon points="15.579,1.499 2.077,55.186 51.188,55.186 64.694,1.499 "/>
<path fill="#FFFFFF" d="M103.581,30.619c-0.415,2.194-0.876,3.454-1.599,4.902c-1.353,2.708-4.087,4.183-7.936,4.699
	c-1.503,0.191-3.517,0.134-3.517,0.134l8.042,11.424H86.642L75.471,35.879c0,0,9.729-0.026,10.739-0.026
	c2.328,0,5.404-0.682,6.263-2.284c0.259-0.484,0.63-1.306,0.645-2.174c0.003-1.08-1.042-1.988-2.824-1.988
	c-1.786,0-17.496-0.012-17.496-0.012l-5.535,22.076H55.978l7.085-27.509c0,0,26.757-0.007,32.324-0.007
	C101.439,23.955,104.275,27.004,103.581,30.619"/>
<path fill="#FFFFFF" d="M51.975,35.333l-18.593,0.021l-1.747,5.219h9.238l-1.503,5.042H24.478c-3.251,0-4.612-0.793-4.281-3.074
	c0.363-2.589,1.332-4.781,2.212-7.181c1.79-4.854,4.377-6.087,15.145-6.087c5.715,0,16.123,0.009,16.123,0.009l1.707-5.466
	c0,0-15.369-0.006-19.369-0.006c-15.783,0-21.182,1.847-24.2,9.567c-1.019,2.621-2.554,7.453-3.233,11.436
	c-0.807,4.69,2.821,6.524,6.687,6.658c5.34,0.177,32.15,0.093,32.15,0.093L51.975,35.333z"/>
<path fill="#FFFFFF" d="M158.74,24.022h-7.6c-2.304,0-5.16,0.461-6.998,3.187c-1.158,1.697-4.41,8.068-4.41,8.068h5.377l1.638-3.157
	h7.021l0.067,3.157h5.151L158.74,24.022z M147.783,30.135c0,0,0.914-1.849,1.453-2.583c0.97-1.303,2.151-1.533,3.307-1.544
	c0.72-0.012,1.089-0.012,1.089-0.012l0.101,4.139H147.783z"/>
<path fill="#FFFFFF" d="M234.215,5.507h-7.795c-2.371,0-5.31,0.479-7.198,3.28c-1.185,1.747-4.519,8.289-4.519,8.289h5.52
	l1.684-3.244h7.203l0.076,3.244h5.285L234.215,5.507z M222.959,11.797c0,0,0.943-1.91,1.508-2.656
	c0.986-1.332,2.205-1.575,3.384-1.59c0.749-0.012,1.116-0.012,1.116-0.012l0.113,4.258H222.959z"/>
<path fill="#FFFFFF" d="M179.934,35.278l0.372-1.978h-10.121c0,0,9.798-6.626,11.049-7.381c0.108-0.521,0.306-1.538,0.386-1.93
	h-18.148l-0.262,1.93h10.066l-11.245,7.381l-0.351,1.978H179.934z"/>
<path fill="#FFFFFF" d="M197.867,24.002c-2.495-0.137-5.668-0.122-7.639,0c-3.363,0.215-5.572,0.97-6.443,3.854
	c-0.348,1.129-0.754,2.882-0.946,4.104c-0.446,2.649,1.036,3.213,2.817,3.325c2.705,0.154,6.709,0.184,9.469,0.072
	c2.609-0.101,4.699-0.867,5.506-3.357c0.441-1.353,0.723-2.484,0.998-4.134C201.955,25.943,201.014,24.185,197.867,24.002
	 M192.928,33.286c-1.007,0.078-2.383,0.078-3.164,0.016c-0.682-0.067-1.859-0.236-1.718-1.565c0.097-0.908,0.612-3.151,0.964-4.146
	c0.365-1.086,1.23-1.527,2.499-1.585c0.929-0.053,2.063-0.053,2.832-0.009c1.687,0.102,2.325,0.707,2.067,2.031
	c-0.293,1.489-0.541,2.455-0.943,3.556C195.038,32.778,193.984,33.212,192.928,33.286"/>
<path fill="#FFFFFF" d="M157.401,5.501c-2.565-0.148-5.558-0.13-7.587-0.005c-3.442,0.226-5.717,1.001-6.627,3.956
	c-0.344,1.158-0.758,2.972-0.959,4.217c-0.453,2.723,1.07,3.303,2.904,3.413c2.772,0.16,6.606,0.192,9.437,0.081
	c2.692-0.104,4.841-0.891,5.665-3.447c0.449-1.391,0.742-2.558,1.021-4.253C161.594,7.487,160.629,5.684,157.401,5.501
	 M152.325,15.039c-1.036,0.075-2.174,0.07-2.981,0.006c-0.692-0.07-1.906-0.247-1.765-1.597c0.099-0.94,0.628-3.25,0.981-4.272
	c0.4-1.103,1.274-1.559,2.578-1.628c0.945-0.047,1.846-0.05,2.638-0.009c1.729,0.107,2.389,0.732,2.122,2.087
	c-0.299,1.535-0.549,2.525-0.958,3.648C154.485,14.505,153.402,14.952,152.325,15.039"/>
<path fill="#FFFFFF" d="M194.727,5.501c-2.557-0.148-5.552-0.13-7.58-0.005c-3.449,0.226-5.719,1.001-6.623,3.956
	c-0.35,1.158-0.762,2.972-0.961,4.217c-0.455,2.723,1.064,3.303,2.899,3.413c2.767,0.16,6.612,0.192,9.45,0.081
	c2.676-0.104,4.824-0.891,5.648-3.447c0.465-1.391,0.742-2.558,1.024-4.253C198.919,7.487,197.961,5.684,194.727,5.501
	 M189.654,15.039c-1.037,0.075-2.168,0.07-2.987,0.006c-0.69-0.07-1.884-0.247-1.75-1.597c0.093-0.94,0.624-3.25,0.981-4.272
	c0.395-1.103,1.266-1.559,2.58-1.628c0.938-0.047,1.832-0.05,2.629-0.009c1.733,0.107,2.387,0.732,2.123,2.087
	c-0.3,1.535-0.543,2.525-0.973,3.648C191.822,14.505,190.738,14.952,189.654,15.039"/>
<path fill="#FFFFFF" d="M218.411,24.002c-2.493-0.137-5.671-0.122-7.651,0c-3.349,0.215-5.561,0.97-6.437,3.854
	c-0.347,1.129-0.749,2.882-0.949,4.104c-0.438,2.649,1.045,3.213,2.832,3.325c2.688,0.154,6.699,0.184,9.454,0.072
	c2.611-0.101,4.716-0.867,5.512-3.357c0.444-1.353,0.719-2.484,0.995-4.134C222.492,25.943,221.559,24.185,218.411,24.002
	 M213.475,33.286c-1.01,0.078-2.387,0.078-3.182,0.016c-0.671-0.067-1.837-0.236-1.703-1.565c0.092-0.908,0.606-3.151,0.957-4.146
	c0.383-1.086,1.231-1.527,2.512-1.585c0.908-0.053,2.058-0.053,2.826-0.009c1.687,0.102,2.325,0.707,2.063,2.031
	c-0.29,1.489-0.528,2.455-0.929,3.556C215.576,32.778,214.528,33.212,213.475,33.286"/>
<path fill="#FFFFFF" d="M139.424,53.306c-2.084,0-2.621-0.537-2.484-2c0.049-0.453,0.125-1.101,0.392-1.875
	c0.53-1.524,2.586-2.339,5.181-2.339h5.373c0,0,0.539-1.455-1.333-1.455h-7.313l0.395-1.91h9.105c3.347,0,4.457,1.844,4.004,4.041
	c-0.321,1.617-1.206,5.538-1.206,5.538H139.424z M142.097,51.366h4.917l0.531-2.514h-3.648c-1.564,0-2.313,0.313-2.552,1.092
	c-0.093,0.299-0.139,0.458-0.168,0.705C141.122,51.044,141.223,51.366,142.097,51.366"/>
<path fill="#FFFFFF" d="M159.75,53.316c-4.268,0-4.688-2.136-4.299-3.959c0.125-0.598,0.197-0.839,0.504-1.892
	c0.779-2.746,2.544-3.733,6.671-3.733h9.067l-0.41,1.853h-6.846c-2.349,0-3.228,1.126-3.5,1.974c-0.232,0.726-0.352,1.23-0.419,1.68
	c-0.177,1.335,0.354,2.162,2.169,2.162h7.418l-0.438,1.916H159.75z"/>
<polygon fill="#FFFFFF" points="175.855,39.364 180.914,39.364 180.397,41.854 175.338,41.854 "/>
<polygon fill="#FFFFFF" points="177.942,53.299 179.982,43.724 175.025,43.724 173.006,53.299 "/>
<path fill="#FFFFFF" d="M197.914,47.744c-0.389,1.837-1.205,5.561-1.205,5.561h-4.91c0,0,0.69-3.062,1.013-4.626
	c0.462-2.264,0.108-2.827-2.722-2.827h-1.875l-1.582,7.453h-4.973l2.026-9.555h8.821C196.454,43.75,198.586,44.54,197.914,47.744"/>
<polygon fill="#FFFFFF" points="129.775,5.888 127.036,17.097 132.818,17.097 135.543,5.888 143.246,5.888 143.908,3.021 
	122.926,3.021 122.232,5.888 "/>
<polygon fill="#FFFFFF" points="206.715,7.742 204.412,17.161 209.269,17.161 211.567,7.742 218.037,7.742 218.592,5.327 
	200.967,5.327 200.381,7.742 "/>
<polygon fill="#FFFFFF" points="167.877,12.743 166.89,17.163 171.664,17.163 172.75,12.743 181.556,5.304 176.877,5.298 
	170.445,10.401 165.818,5.298 161.474,5.304 "/>
<path fill="#FFFFFF" d="M199.058,58.64l1.42-2.505h4.106c4.533,0,5.117-2.655,5.117-2.655h-6.908c-1.68,0-3.088-0.54-2.705-2.859
	c0.166-1.019,0.308-1.837,0.74-3.189c0.726-2.203,3.135-3.698,7.64-3.698c4.804,0,8.194,0.032,8.194,0.032s-0.922,5.314-1.875,8.952
	c-1.234,4.657-4.265,5.923-10.041,5.923H199.058z M210.076,51.418l1.187-5.593c0,0-0.929,0.013-1.654,0.026
	c-1.937,0.041-3.739,0.543-4.286,2.537c-0.209,0.72-0.295,1.167-0.367,1.691c-0.109,0.843,0.576,1.338,1.858,1.338H210.076z"/>
<path fill="#FFFFFF" d="M136.614,42.873c-0.218,1.087-0.435,1.714-0.802,2.43c-0.672,1.35-2.025,2.081-3.941,2.337
	c-0.746,0.099-1.753,0.07-1.753,0.07l4,5.664h-5.927l-5.538-7.891c0,0,4.833-0.015,5.319-0.015c1.17,0,2.691-0.337,3.115-1.139
	c0.127-0.229,0.316-0.646,0.316-1.079c0.014-0.534-0.514-0.984-1.391-0.984c-0.899,0-8.689-0.002-8.689-0.002l-2.755,10.956h-5.593
	l3.501-13.647h16.059C135.543,39.573,136.948,41.076,136.614,42.873"/>
<path fill="#FFFFFF" d="M139.14,27.224l-9.25,0.006l-0.874,2.603h4.598l-0.749,2.512h-7.413c-1.613,0-2.299-0.393-2.142-1.533
	c0.188-1.288,0.67-2.382,1.11-3.569c0.897-2.418,2.181-3.034,7.545-3.034c2.836,0,8.022,0.01,8.022,0.01l0.853-2.734h-9.647
	c-7.854,0-10.545,0.923-12.045,4.766c-0.511,1.304-1.271,3.713-1.611,5.694c-0.395,2.337,1.411,3.251,3.326,3.315
	c2.649,0.096,16.013,0.044,16.013,0.044L139.14,27.224z"/>
</svg>
