<?xml version="1.0" encoding="utf-8"?>
<!-- Generator: Adobe Illustrator 16.0.0, SVG Export Plug-In . SVG Version: 6.00 Build 0)  -->
<!DOCTYPE svg PUBLIC "-//W3C//DTD SVG 1.1//EN" "http://www.w3.org/Graphics/SVG/1.1/DTD/svg11.dtd">
<svg version="1.1" id="Capa_1" xmlns="http://www.w3.org/2000/svg" xmlns:xlink="http://www.w3.org/1999/xlink" x="0px" y="0px"
	 width="622.125px" height="86.334px" viewBox="0 0 622.125 86.334" enable-background="new 0 0 622.125 86.334"
	 xml:space="preserve">
<polygon fill="#FFFFFF" points="24.598,0.696 22.969,0.696 1.568,85.76 600.036,85.76 621.432,0.696 "/>
<path d="M532.351,58.902c-2.185,0-4.616-0.345-3.7-4.31c0.604-2.618,2.568-10.704,3.604-13.705c1.179-3.287,3.843-4.206,6.701-4.206
	h10.89c5.146,0.064,5.954,2.106,4.886,6.131l-2.809,10.904c-0.991,3.792-3.803,5.088-6.957,5.125
	C544.965,58.842,534.534,58.902,532.351,58.902 M537.275,30.606c-10.246,0-17.548,2.78-19.602,11.699l-3.158,12.287
	c-2.058,7.989,2.807,11.037,8.73,11.037h25.912c7.937-0.31,14.563-2.998,16.653-10.71c0.087-0.327,3.277-12.569,3.277-12.569
	c1.691-6.37-1.132-11.744-11.444-11.744H537.275z"/>
<path d="M102.147,45.474c3.518-0.823,5.22-3.737,5.742-6.508c0.861-4.536-3.314-8.359-11.559-8.359H62.478L53.453,65.63h11.215
	h1.471h23.707c12.726,0,16.88-5.042,18.546-11.037C109.597,49.921,107.402,45.709,102.147,45.474 M92.971,37.457
	c2.269,0,3.61,1.134,3.581,2.488c-0.024,1.098-0.494,2.145-0.805,2.742c-1.074,2.032-4.015,2.885-7.887,2.885l-16.557,0.013
	l2.094-8.126L92.971,37.457z M95.864,56.396c-1.076,2.031-3.363,2.887-7.889,2.887l-20.204,0.013l2.092-8.126l22.491-0.004
	c3.242,0,4.341,1.135,4.312,2.49C96.646,54.753,96.173,55.8,95.864,56.396"/>
<path d="M462.748,30.606L462.748,30.606h28.664c16.301,0,19.122,11.04,19.054,14.541c-0.224,14.019-9.541,20.482-23.586,20.482
	H453.73L462.748,30.606z M469.621,59.08h12.738c10.463,0,15.077-6.916,14.807-13.207c-0.232-5.451-3.957-8.95-9.099-8.95
	c-4.086,0-12.752-0.047-12.752-0.047L469.621,59.08z"/>
<path d="M315.054,58.424l5.061-19.786c1.4-5.399,8.375-8.031,13.923-8.031h34.381l-1.597,6.277h-21.54
	c-8.402,0-11.271,3.207-11.963,5.793l-0.421,1.637h27.459l-1.552,6.022h-27.467l-0.716,2.81c-1.382,5.365,0.035,5.972,7.904,5.972
	h23.939l-1.676,6.511h-40.106C316.926,65.598,314.175,62.078,315.054,58.424"/>
<path d="M144.537,58.424l5.061-19.786c1.4-5.399,8.374-8.031,13.923-8.031h34.381l-1.597,6.277h-21.54
	c-8.402,0-11.271,3.207-11.963,5.793l-0.421,1.637h27.459l-1.552,6.022h-27.466l-0.716,2.81c-1.382,5.365,0.035,5.972,7.904,5.972
	h23.94l-1.677,6.511h-40.106C146.41,65.598,143.659,62.078,144.537,58.424"/>
<polygon points="427.378,65.629 436.397,30.606 452.076,30.606 443.057,65.629 "/>
<polygon points="114.895,65.629 123.915,30.606 139.594,30.606 130.574,65.629 "/>
<path d="M299.62,30.606c0,0-8.608,20.997-10.996,24.033c-3.632,4.622-8.528,4.761-12.118,4.826h-0.964V30.606h-14.203l2.172,35.023
	h14.854c8.511,0,18.557-1.448,24.266-9.912c3.584-5.299,11.192-25.111,11.192-25.111H299.62z"/>
<polygon points="412.311,30.606 406.759,52.078 398.027,30.606 380.768,30.606 371.726,65.63 384.485,65.63 391.478,38.589 
	401.797,65.63 416.022,65.63 425.042,30.606 "/>
<polygon points="239.844,30.606 234.292,52.078 225.561,30.606 208.301,30.606 199.259,65.63 212.019,65.63 219.011,38.589 
	229.33,65.63 243.556,65.63 252.576,30.606 "/>
</svg>
