<?xml version="1.0" encoding="utf-8"?>
<!-- Generator: Adobe Illustrator 16.0.0, SVG Export Plug-In . SVG Version: 6.00 Build 0)  -->
<!DOCTYPE svg PUBLIC "-//W3C//DTD SVG 1.1//EN" "http://www.w3.org/Graphics/SVG/1.1/DTD/svg11.dtd">
<svg version="1.1" id="Capa_1" xmlns="http://www.w3.org/2000/svg" xmlns:xlink="http://www.w3.org/1999/xlink" x="0px" y="0px"
	 width="517.417px" height="67.25px" viewBox="0 0 517.417 67.25" enable-background="new 0 0 517.417 67.25" xml:space="preserve">
<path fill="#1D1D1B" d="M515.16,0.738h-40.387c-13.512,0-25.361,2.738-36.171,18.711c-6.756,10.022-25.894,47.444-25.894,47.444
	h26.608l9.629-18.557h41.213l0.396,18.557h26.024L515.16,0.738z M455.001,36.656c0,0,5.162-11.086,8.587-15.174
	c7.056-8.432,11.907-9.166,25.797-9.166l0.521,24.34H455.001z"/>
<polygon fill="#1D1D1B" points="211.019,66.894 228.057,0.739 257.674,0.739 240.636,66.894 "/>
<polygon fill="#1D1D1B" points="368.431,66.894 385.468,0.739 415.085,0.739 398.047,66.894 "/>
<polygon fill="#1D1D1B" points="4.041,0.739 0.705,13.685 34.825,13.685 21.119,66.894 47.958,66.894 61.661,13.685 95.717,13.685 
	99.112,0.739 "/>
<path fill="#1D1D1B" d="M342.596,0.739c0,0-16.26,39.66-20.77,45.396c-6.862,8.73-16.109,8.995-22.892,9.116h-1.819V0.739h-26.828
	l4.103,66.154h28.058c16.075,0,35.052-2.733,45.837-18.722c6.77-10.011,21.14-47.433,21.14-47.433H342.596z"/>
<path fill="#1D1D1B" d="M187.041,0.739h-71.607L98.394,66.894h26.84l13.589-53.209h37.362c6.649,0,8.569,1.497,7.284,6.474
	c-0.466,1.82-0.169,0.653-0.813,3.164c-1.178,4.571-3.288,5.053-10.987,5.053h-26.354l27.154,38.519h25.596l-19.016-26.975h1.757
	c18.676,0,23.087-7.545,25.219-14.208c0.102-0.096,2.623-9.883,2.623-9.883C211.194,5.938,203.693,0.739,187.041,0.739"/>
</svg>
